<svg xmlns="http://www.w3.org/2000/svg" viewBox="0 0 16 16" fill="#000000" id="Code-Bold--Streamline-Phosphor" height="16" width="16">
  <desc>
    Code Bold Streamline Icon: https://streamlinehq.com
  </desc>
  <path d="M4.48 6.07625 2.17125 8l2.30875 1.92375a0.75 0.75 0 1 1 -0.96 1.1525l-3 -2.5a0.75 0.75 0 0 1 0 -1.1525l3 -2.5a0.75 0.75 0 0 1 0.96 1.1525Zm11 1.3475 -3 -2.5a0.75 0.75 0 1 0 -0.96 1.1525L13.82875 8l-2.30875 1.92375a0.75 0.75 0 1 0 0.96 1.1525l3 -2.5a0.75 0.75 0 0 0 0 -1.1525ZM10.25625 1.795a0.75 0.75 0 0 0 -0.96125 0.44875l-4 11a0.75 0.75 0 0 0 0.44875 0.960625 0.736875 0.736875 0 0 0 0.25625 0.045625 0.75 0.75 0 0 0 0.705 -0.49375l4 -11a0.75 0.75 0 0 0 -0.44875 -0.96125Z" stroke-width="0.0625"></path>
</svg>